<?xml version="1.0" standalone="no"?>
<!DOCTYPE svg PUBLIC "-//W3C//DTD SVG 20010904//EN"
 "http://www.w3.org/TR/2001/REC-SVG-20010904/DTD/svg10.dtd">
<svg version="1.0" xmlns="http://www.w3.org/2000/svg"
 width="976.000000pt" height="976.000000pt" viewBox="0 0 976.000000 976.000000"
 preserveAspectRatio="xMidYMid meet">
<metadata>
Created by potrace 1.14, written by Peter Selinger 2001-2017
</metadata>
<g transform="translate(0.000000,976.000000) scale(0.100000,-0.100000)"
fill="#000000" stroke="none">
<path d="M4618 9675 c-2 -1 -46 -6 -98 -9 -52 -4 -111 -9 -130 -11 -19 -2 -60
-7 -90 -11 -59 -6 -113 -13 -145 -19 -11 -2 -40 -6 -65 -10 -25 -3 -52 -8 -60
-10 -8 -3 -33 -7 -55 -11 -22 -3 -80 -14 -130 -25 -49 -11 -101 -22 -114 -25
-13 -3 -32 -9 -43 -15 -10 -5 -18 -8 -18 -5 0 5 -133 -32 -235 -65 -38 -12
-72 -23 -75 -24 -24 -5 -184 -63 -235 -85 -11 -4 -56 -23 -100 -40 -44 -18
-136 -59 -203 -91 -68 -32 -128 -59 -133 -59 -5 0 -9 -4 -9 -10 0 -5 -9 -10
-20 -10 -11 0 -20 -3 -20 -8 0 -4 -15 -14 -32 -21 -31 -14 -166 -90 -198 -111
-8 -6 -23 -13 -32 -16 -10 -4 -18 -10 -18 -15 0 -5 -4 -9 -9 -9 -8 0 -102 -58
-126 -77 -5 -5 -27 -19 -48 -32 -21 -13 -43 -28 -50 -35 -6 -6 -28 -22 -47
-33 -20 -12 -45 -30 -57 -40 -54 -46 -64 -53 -71 -53 -4 0 -23 -15 -43 -33
-20 -17 -52 -44 -70 -59 -79 -62 -205 -174 -292 -260 -43 -43 -83 -78 -88 -78
-5 0 -9 -4 -9 -8 0 -4 -28 -38 -62 -74 -72 -76 -164 -178 -193 -216 -11 -14
-28 -34 -37 -44 -10 -10 -18 -20 -18 -23 0 -3 -10 -17 -22 -30 -29 -30 -37
-41 -68 -85 -13 -19 -27 -37 -30 -40 -9 -7 -190 -270 -190 -275 0 -3 -17 -31
-37 -62 -21 -32 -43 -67 -49 -78 -6 -11 -21 -38 -34 -60 -13 -22 -41 -74 -63
-115 -22 -41 -46 -85 -53 -97 -8 -12 -14 -29 -14 -38 0 -8 -4 -15 -10 -15 -5
0 -10 -4 -10 -10 0 -5 -18 -47 -40 -94 -22 -46 -40 -87 -40 -90 0 -3 -11 -29
-24 -58 -13 -29 -34 -80 -46 -113 -13 -33 -29 -74 -36 -92 -8 -17 -14 -38 -14
-47 0 -9 -4 -16 -10 -16 -5 0 -9 -3 -8 -7 2 -5 -6 -35 -16 -68 -21 -68 -27
-88 -28 -95 0 -3 -4 -13 -10 -23 -5 -10 -11 -26 -13 -35 -1 -9 -11 -44 -20
-77 -9 -33 -18 -67 -19 -75 -2 -8 -9 -35 -16 -60 -7 -25 -14 -52 -15 -60 -4
-26 -22 -111 -25 -120 -1 -3 -2 -8 -2 -11 1 -4 -3 -21 -8 -39 -5 -18 -12 -52
-15 -74 -3 -23 -10 -66 -15 -96 -5 -30 -12 -75 -15 -100 -3 -25 -8 -61 -11
-80 -11 -74 -23 -243 -28 -387 -2 -61 -7 -116 -11 -122 -3 -6 -1 -11 5 -11 6
0 8 -4 5 -10 -9 -15 -12 -91 -4 -96 4 -2 4 -17 -1 -33 -4 -16 -5 -32 -2 -35 3
-4 7 -44 8 -89 2 -88 12 -251 20 -304 10 -78 13 -101 20 -158 3 -33 17 -116
30 -185 13 -69 26 -137 28 -151 3 -14 14 -66 26 -115 12 -49 23 -93 24 -99 18
-76 103 -356 126 -410 4 -11 27 -69 51 -130 23 -60 50 -129 60 -153 10 -23 19
-46 20 -50 4 -11 187 -374 206 -407 10 -16 21 -31 26 -33 4 -2 7 -9 7 -15 0
-13 141 -241 152 -245 4 -2 8 -8 8 -13 0 -6 5 -15 10 -22 6 -7 42 -57 80 -112
39 -54 74 -101 78 -105 5 -3 19 -21 33 -41 25 -38 56 -75 202 -244 103 -120
350 -359 491 -477 12 -10 35 -30 51 -44 54 -46 309 -236 332 -247 13 -6 23
-14 23 -19 0 -4 6 -8 14 -8 8 0 16 -4 18 -8 12 -31 698 -409 698 -385 0 3 6 1
13 -5 29 -24 462 -187 552 -207 6 -1 17 -5 25 -8 13 -5 106 -31 150 -41 8 -2
33 -9 55 -14 22 -6 51 -13 65 -16 14 -3 48 -11 75 -17 28 -6 59 -12 70 -14 11
-2 32 -6 48 -9 51 -11 139 -26 182 -32 17 -2 50 -6 75 -10 25 -3 61 -8 80 -9
19 -2 53 -6 75 -9 206 -28 758 -28 990 -1 22 3 58 7 80 9 22 3 58 7 80 10 22
4 56 8 75 10 19 3 35 5 35 6 0 2 33 7 90 14 22 2 40 5 40 6 0 1 11 4 25 7 38
7 55 11 55 13 0 1 15 3 34 6 18 2 61 11 95 20 33 9 70 18 82 20 12 2 39 10 62
18 22 8 42 12 45 10 2 -3 20 2 38 10 29 12 129 43 164 51 5 1 17 5 25 8 8 3
67 24 130 47 63 23 129 48 145 55 17 7 59 25 95 40 36 14 82 35 103 46 20 10
37 15 37 11 0 -4 4 -2 8 3 4 6 39 25 77 44 79 39 72 36 103 46 12 4 22 11 22
16 0 5 5 9 11 9 6 0 54 25 106 55 53 30 98 55 100 55 14 0 425 279 448 304 6
6 35 30 66 53 31 23 63 48 72 57 8 9 18 16 21 16 3 0 16 10 28 23 13 12 55 49
93 82 86 73 341 328 412 410 89 103 94 109 119 140 55 70 180 234 194 255 8
12 24 35 35 49 12 14 45 64 75 111 29 47 63 101 76 120 35 56 124 210 124 216
0 2 18 36 40 75 22 39 40 77 40 85 0 8 4 14 9 14 5 0 12 14 16 30 4 17 11 30
16 30 5 0 9 7 9 16 0 9 7 28 15 42 8 15 24 50 36 77 11 28 27 64 34 80 7 17
23 57 35 90 13 33 26 69 31 80 37 88 139 416 142 455 1 11 4 20 8 20 4 0 6 8
4 18 -1 9 2 23 8 30 5 6 7 12 4 12 -3 0 2 26 10 58 8 31 17 66 19 77 2 11 6
31 9 45 2 14 7 40 10 59 3 19 7 37 9 40 2 3 7 33 11 66 3 32 8 62 10 65 1 3 6
32 9 65 4 33 9 74 12 90 10 68 24 241 28 366 2 48 7 92 10 98 4 6 4 11 -1 11
-4 0 -8 11 -8 25 0 14 4 25 8 25 5 0 5 4 2 10 -11 19 -14 50 -4 55 5 4 7 11 3
16 -3 5 -7 69 -10 142 -4 136 -12 282 -14 282 -2 0 -6 33 -14 115 -5 60 -16
141 -21 160 -2 8 -7 38 -10 65 -4 28 -9 59 -12 70 -3 11 -7 29 -9 40 -2 11 -5
29 -7 40 -2 11 -7 36 -11 55 -9 50 -13 68 -30 132 -8 31 -17 67 -20 80 -14 67
-77 279 -86 288 -3 3 -6 16 -8 29 -2 13 -12 43 -23 67 -10 24 -19 48 -20 52
-4 18 -72 195 -98 255 -11 26 -20 48 -20 50 1 4 -191 381 -217 427 -29 51
-184 300 -196 315 -4 6 -47 64 -94 130 -48 66 -92 123 -98 127 -6 4 -8 8 -4 8
4 0 -3 11 -15 23 -12 13 -32 37 -44 53 -13 16 -35 43 -50 60 -16 18 -48 56
-73 85 -59 71 -350 362 -419 419 -29 25 -71 61 -94 80 -64 56 -74 64 -97 80
-12 8 -32 23 -43 33 -36 31 -68 55 -142 107 -38 27 -75 54 -82 60 -7 5 -17 10
-23 10 -5 0 -10 5 -10 10 0 6 -7 10 -15 10 -8 0 -15 5 -15 10 0 6 -7 10 -15
10 -8 0 -15 4 -15 8 0 5 -17 18 -37 29 -21 11 -87 51 -148 87 -131 80 -526
279 -595 300 -34 11 -62 22 -95 37 -44 19 -240 90 -264 94 -9 2 -17 4 -18 5
-2 2 -7 4 -13 5 -5 1 -11 3 -12 5 -4 2 -41 11 -55 12 -7 1 -13 6 -13 11 0 6
-3 8 -6 4 -3 -3 -23 1 -44 8 -21 7 -51 16 -67 18 -15 3 -41 10 -58 17 -16 6
-31 11 -33 10 -3 -2 -53 9 -137 29 -66 16 -280 53 -375 65 -25 3 -56 8 -70 11
-13 3 -62 7 -107 10 -46 4 -93 9 -106 12 -23 5 -633 13 -639 8z"/>
</g>
</svg>
